<?xml version="1.0" standalone="no"?>
<!DOCTYPE svg PUBLIC "-//W3C//DTD SVG 20010904//EN"
 "http://www.w3.org/TR/2001/REC-SVG-20010904/DTD/svg10.dtd">
<svg version="1.0" xmlns="http://www.w3.org/2000/svg"
 width="292.000000pt" height="292.000000pt" viewBox="0 0 292.000000 292.000000"
 preserveAspectRatio="xMidYMid meet">
<metadata>
Created by potrace 1.14, written by Peter Selinger 2001-2017
</metadata>
<g transform="translate(0.000000,292.000000) scale(0.100000,-0.100000)"
fill="#000000" stroke="none">
<path d="M1338 2915 c-2 -2 -26 -6 -53 -9 -138 -14 -285 -53 -403 -107 -35
-16 -66 -29 -68 -29 -3 0 -38 -19 -77 -42 -223 -129 -424 -330 -544 -543 -80
-141 -145 -322 -168 -465 -4 -25 -9 -54 -12 -65 -10 -46 -9 -306 2 -380 22
-141 24 -152 56 -252 85 -266 218 -465 449 -672 114 -103 343 -228 503 -275
182 -54 279 -68 455 -65 317 5 570 92 862 296 72 51 185 166 283 288 125 156
224 390 273 645 10 56 14 361 4 415 -27 158 -46 232 -85 331 -59 148 -171 338
-250 420 -11 11 -39 41 -62 67 -124 135 -307 258 -518 347 -56 24 -190 62
-270 76 -76 13 -368 28 -377 19z"/>
</g>
</svg>
